<svg width="104" height="104" viewBox="0 0 104 104" fill="none" xmlns="http://www.w3.org/2000/svg">
<g clip-path="url(#clip0)">
<path d="M42.0335 0C36.2952 0 31.627 4.66824 31.627 10.4065C31.627 16.1448 36.2954 20.8131 42.0335 20.8131C47.7718 20.8131 52.44 16.1448 52.44 10.4065C52.44 4.66824 47.7718 0 42.0335 0ZM42.0335 17.766C37.9754 17.766 34.674 14.4646 34.674 10.4065C34.674 6.34849 37.9756 3.04709 42.0335 3.04709C46.0915 3.04709 49.3929 6.3487 49.3929 10.4065C49.3929 14.4644 46.0915 17.766 42.0335 17.766Z" fill="#FF6B00"/>
<path d="M81.0461 63.4309C80.4453 62.8422 79.4806 62.8512 78.8916 63.452L66.1038 76.4937L61.5879 71.7688C61.0065 71.1602 60.0421 71.1385 59.4337 71.7201C58.8256 72.3014 58.8036 73.2657 59.385 73.8742L64.9884 79.7368C65.5827 80.359 66.5748 80.3655 67.1777 79.7509L81.0672 65.5857C81.6563 64.9844 81.6468 64.02 81.0461 63.4309Z" fill="#FF6B00"/>
<path d="M89.4533 73.6071C88.6286 73.4436 87.8261 73.979 87.6622 74.8045C85.9153 83.5944 79.7128 91.1046 71.4749 94.405C70.6938 94.7178 70.3144 95.6046 70.6272 96.3858C70.94 97.1671 71.8271 97.5463 72.6081 97.2335C82.0922 93.434 88.7418 85.0049 90.6505 75.3985C90.8149 74.573 90.2784 73.771 89.4533 73.6071Z" fill="#FF6B00"/>
<path d="M86.8386 50.13C82.7631 52.4325 78.9189 52.5092 75.4121 50.3583C72.6244 48.6486 71.0622 46.1443 70.9998 46.0431C70.4865 45.2028 69.6098 44.6865 68.6334 44.6393C65.799 36.7034 61.0684 31.191 57.5048 27.9091C55.232 25.8161 52.282 24.6635 49.1979 24.6635C47.7167 24.6635 36.312 24.6635 34.8701 24.6635C31.5774 24.6635 28.4434 25.9008 26.0455 28.1471C21.1083 32.7727 12.8181 42.8778 12.7696 58.5815C12.7592 61.8742 15.3734 64.6251 18.5968 64.7139C21.9641 64.8124 24.7615 62.1102 24.7615 58.7202C24.7615 52.8267 26.4168 47.2788 29.5843 42.4533V98.7143C29.5843 101.629 31.9556 104 34.8703 104H38.272C39.7426 104 41.0751 103.397 42.0343 102.424C42.9935 103.397 44.3258 104 45.7966 104H49.1983C52.113 104 54.4843 101.629 54.4843 98.7143V90.6825C57.3027 93.5138 60.6583 95.7478 64.3662 97.2331C65.1478 97.5461 66.0344 97.166 66.347 96.3854C66.6601 95.6044 66.2804 94.7176 65.4994 94.4045C55.6904 90.4747 48.7905 80.7322 48.7905 69.4757V52.869C54.9586 56.2852 60.9307 55.4519 65.8096 50.8991C66.9288 49.8708 67.8408 48.7827 68.4573 47.8158C68.4669 47.8012 68.4794 47.7827 68.4878 47.7697C68.9253 48.4455 70.7532 51.075 73.82 52.9559C76.9039 54.8478 81.89 56.3564 88.1853 52.8688V67.9917C88.1853 68.8332 88.8674 69.5151 89.7087 69.5151C90.5501 69.5151 91.2322 68.8332 91.2322 67.9917V52.6939C91.2316 50.442 88.8028 49.0212 86.8386 50.13ZM44.7127 27.7106L42.8884 29.8776C42.4418 30.4079 41.6264 30.4079 41.1795 29.8776L39.3551 27.7106H44.7127ZM54.4839 51.7782V42.8476C56.2391 45.6036 57.497 48.5739 58.2417 51.7258C57.0205 51.9935 55.7701 52.0102 54.4839 51.7782ZM61.1054 50.607C59.8817 45.7171 57.5354 41.236 54.1144 37.2632C53.1932 36.1936 51.4362 36.8509 51.4362 38.2573V50.794C50.7799 50.4952 49.9568 50.038 49.9343 50.0275C47.9985 49.1164 45.7422 50.5263 45.7422 52.6941V52.7465V69.4761C45.7422 75.8539 47.7143 81.9533 51.4362 87.101V98.7147H51.437C51.437 99.9491 50.4327 100.954 49.1981 100.954H45.7964C44.562 100.954 43.5575 99.9495 43.5575 98.7147V67.4049C43.5575 66.5633 42.8754 65.8814 42.0341 65.8814C41.1928 65.8814 40.5107 66.5633 40.5107 67.4049V98.7145C40.5107 99.9489 39.5064 100.953 38.2718 100.953H34.8701C33.6357 100.953 32.6312 99.9493 32.6312 98.7145V37.9579C32.6312 36.5566 30.8902 35.9015 29.9652 36.95C24.5671 43.0673 21.714 50.5956 21.714 58.7204C21.714 60.3607 20.3746 61.7086 18.6805 61.6682C17.0961 61.6245 15.8112 60.2443 15.8164 58.5912C15.8615 44.0316 23.5497 34.661 28.1287 30.3712C29.9599 28.6556 32.3537 27.7106 34.8699 27.7106H35.3718L38.8485 31.8398C40.5127 33.817 43.5569 33.8144 45.2191 31.8398L48.6956 27.7106H49.1975C51.515 27.7106 53.7319 28.5772 55.4404 30.1504C58.8153 33.2586 63.319 38.5194 65.9247 46.1189C64.7645 47.8696 62.9951 49.5404 61.1054 50.607Z" fill="#FF6B00"/>
</g>
<defs>
<clipPath id="clip0">
<rect width="104" height="104" fill="white"/>
</clipPath>
</defs>
</svg>
