<svg width="104" height="104" viewBox="0 0 104 104" fill="none" xmlns="http://www.w3.org/2000/svg">
<path d="M93.166 18.4163C86.4036 18.4163 81.2714 14.4586 75.837 10.2692C69.594 5.45573 62.5181 0 51.9995 0C41.4809 0 34.405 5.45573 28.1615 10.2692C22.7275 14.4586 17.5952 18.4163 10.8327 18.4163C9.63655 18.4163 8.66602 19.3865 8.66602 20.5831C8.66602 45.8813 11.8167 62.7264 18.882 75.2022C25.8975 87.5903 36.3408 95.2947 50.916 103.71C51.2512 103.903 51.6251 104 51.9993 104C52.3734 104 52.7474 103.903 53.0825 103.71C67.658 95.2947 78.1011 87.5905 85.117 75.2022C92.1819 62.7264 95.3326 45.8813 95.3326 20.5831C95.3328 19.3865 94.3622 18.4163 93.166 18.4163ZM51.9995 99.3281C25.8642 84.0883 13.3487 70.9593 13.0068 22.6409C20.1454 21.9217 25.5579 17.7485 30.8079 13.7008C36.7807 9.09573 42.9574 4.33327 51.9995 4.33327C61.0414 4.33327 67.2178 9.09533 73.1911 13.7008C78.4407 17.7487 83.8535 21.9215 90.9922 22.6409C90.6503 70.9593 78.1348 84.0883 51.9995 99.3281Z" fill="#FF6B00"/>
<path d="M26.4002 24.7451C25.8424 23.6862 24.5323 23.28 23.4734 23.8375C23.2042 23.9793 22.9312 24.1185 22.6574 24.2535C21.5839 24.7821 21.1421 26.0809 21.6704 27.1546C22.0474 27.9206 22.8165 28.3644 23.616 28.3644C23.9371 28.3644 24.2637 28.2929 24.5715 28.1414C24.8808 27.989 25.1886 27.832 25.4922 27.6721C26.5513 27.1141 26.9576 25.804 26.4002 24.7451Z" fill="#FF6B00"/>
<path d="M83.604 41.7353C83.6704 41.7412 83.7368 41.7442 83.8024 41.7442C84.9103 41.7442 85.8558 40.8988 85.9576 39.7735C85.983 39.4968 86.0069 39.219 86.0303 38.9423C86.1315 37.7498 85.2466 36.7014 84.0541 36.6003C82.8634 36.4977 81.8132 37.3839 81.7125 38.5765C81.6897 38.8442 81.6664 39.1129 81.6418 39.3811C81.5339 40.573 82.4122 41.627 83.604 41.7353Z" fill="#FF6B00"/>
<path d="M30.6826 23.9947C31.1217 23.9947 31.5654 23.8615 31.9489 23.5842C33.204 22.6781 34.4266 21.7476 35.6086 20.8471C41.139 16.6363 45.9151 12.9996 51.9999 12.9996C53.1965 12.9996 54.1667 12.0295 54.1667 10.8329C54.1667 9.63666 53.1965 8.66613 51.9999 8.66613C44.453 8.66613 38.8817 12.908 32.9834 17.3995C31.8227 18.2835 30.6226 19.1971 29.4122 20.071C28.4417 20.7718 28.2235 22.1258 28.9239 23.0959C29.3474 23.683 30.0102 23.9947 30.6826 23.9947Z" fill="#FF6B00"/>
<path d="M51.9991 89.2306C46.4542 85.8118 39.757 81.221 34.7353 75.3007C33.9614 74.3878 32.594 74.2759 31.6815 75.0494C30.7687 75.8233 30.6563 77.1908 31.4302 78.1036C37.1994 84.9061 44.8527 89.9708 50.8754 93.6234C50.8864 93.6297 50.8982 93.6344 50.9091 93.6407C50.9611 93.6707 51.0143 93.6969 51.0686 93.7227C51.1033 93.7392 51.1378 93.7574 51.173 93.7719C51.2217 93.7918 51.2711 93.8074 51.3213 93.8239C51.3631 93.8377 51.4043 93.8535 51.4466 93.8647C51.4919 93.8767 51.538 93.8838 51.5837 93.8927C51.6298 93.9021 51.6759 93.9135 51.7226 93.9193C51.7882 93.9279 51.8541 93.9299 51.9207 93.9325C51.9461 93.9334 51.9715 93.9376 51.9969 93.9376C51.9977 93.9376 51.9985 93.9376 51.9991 93.9376C51.9999 93.9376 52.0009 93.9376 52.0013 93.9376C52.0267 93.9376 52.0521 93.9334 52.0775 93.9325C52.1439 93.9299 52.2103 93.9281 52.276 93.9193C52.3221 93.9135 52.3674 93.9021 52.4131 93.8931C52.4596 93.8842 52.5063 93.8771 52.552 93.8647C52.5938 93.8537 52.6351 93.8381 52.6763 93.8245C52.7261 93.808 52.7762 93.7924 52.8254 93.7721C52.8605 93.7579 52.8947 93.7396 52.9294 93.7229C52.9836 93.6971 53.0373 93.6709 53.0889 93.6409C53.1004 93.6346 53.1116 93.6299 53.1226 93.6236C59.1452 89.9712 66.7984 84.9067 72.5677 78.1034C79.1465 70.3438 83.2933 59.8433 85.2446 46.0013C85.4115 44.8163 84.5864 43.7208 83.4016 43.5537C82.2154 43.3869 81.1207 44.2118 80.9535 45.3966C79.1199 58.4029 75.2961 68.185 69.2627 75.3013C64.2416 81.221 57.545 85.8118 51.9991 89.2306Z" fill="#FF6B00"/>
<path d="M65.9833 27.106L43.3805 49.7086L38.0172 44.3446C36.6906 43.0184 34.9222 42.288 33.0374 42.288C31.1522 42.288 29.3838 43.0184 28.0566 44.345C25.3117 47.0915 25.3117 51.5594 28.0574 54.3051L38.4161 64.6624L38.5059 64.7508C38.5191 64.7636 38.5325 64.7762 38.5457 64.789L38.6367 64.8737C38.6528 64.8885 38.6688 64.9033 38.6855 64.9175L38.7787 64.9992C38.7929 65.012 38.8076 65.0242 38.8222 65.0364L38.9166 65.1146C38.9272 65.1239 38.9384 65.1322 38.9491 65.1412L39.0452 65.2182C39.0629 65.2322 39.0808 65.2462 39.099 65.2596L39.1976 65.3337C39.2114 65.3439 39.225 65.3541 39.239 65.3638L39.3379 65.4345C39.3528 65.4451 39.3676 65.4552 39.3824 65.4652L39.4832 65.5334C39.4992 65.544 39.5153 65.5547 39.5315 65.5651L39.6335 65.6303C39.6473 65.6388 39.6609 65.6476 39.6749 65.6557L39.7783 65.7183C39.7921 65.7268 39.8057 65.7351 39.8197 65.7432L39.9237 65.8028C39.944 65.8147 39.9646 65.8261 39.9851 65.8371L40.0909 65.8934C40.1019 65.8992 40.113 65.9053 40.1242 65.9106L40.2309 65.9653C40.2496 65.975 40.2686 65.9844 40.2875 65.9937L40.3954 66.0449C40.4106 66.052 40.4259 66.0587 40.4411 66.0662L40.4961 66.0908C40.5347 66.1095 40.5739 66.1267 40.6142 66.1432L40.7243 66.1881C40.7344 66.1924 40.7442 66.196 40.7543 66.2001L40.8648 66.2431C40.8813 66.2498 40.8981 66.2563 40.915 66.2626L41.0273 66.3035C41.045 66.3098 41.0633 66.3163 41.0815 66.3222L41.1358 66.3404C41.1726 66.354 41.2099 66.3662 41.2481 66.3776L41.3608 66.4119C41.3769 66.4164 41.3929 66.4217 41.4092 66.4257L41.5229 66.4576C41.5386 66.4619 41.5544 66.4662 41.5705 66.4704L41.685 66.4997C41.7003 66.5035 41.7161 66.5072 41.7316 66.5113L41.8461 66.5375C41.8622 66.5413 41.8786 66.545 41.8953 66.5484L42.0098 66.572C42.032 66.5767 42.0539 66.5805 42.0758 66.5848L42.1325 66.5945C42.1662 66.6012 42.2006 66.6077 42.2355 66.6128L42.3511 66.6305C42.3683 66.6335 42.3858 66.6356 42.4031 66.638L42.5195 66.6528C42.5359 66.6551 42.5528 66.6571 42.5692 66.6587L42.6243 66.6646C42.6606 66.6693 42.697 66.6736 42.734 66.6766L42.8512 66.6864C42.8733 66.6882 42.8953 66.6898 42.9172 66.6906L42.9722 66.6937C43.0082 66.6967 43.0445 66.6987 43.0809 66.6996L43.1981 66.7034C43.2101 66.7038 43.2213 66.7038 43.2333 66.7042L43.3496 66.7059C43.3602 66.7059 43.3704 66.7059 43.3811 66.7059C43.3917 66.7059 43.4018 66.7059 43.4126 66.7059L43.5298 66.7042C43.5418 66.7038 43.553 66.7038 43.565 66.7034L43.6826 66.6996C43.7189 66.6987 43.7553 66.6965 43.7912 66.6937L43.8463 66.6906C43.8688 66.6894 43.8912 66.688 43.9137 66.6862L44.0301 66.6764C44.0665 66.6734 44.1024 66.6697 44.1384 66.6648L44.1934 66.6589C44.2095 66.6573 44.2255 66.6555 44.2414 66.6535L44.3586 66.6382C44.3768 66.636 44.3949 66.6335 44.4128 66.6307L44.5284 66.613C44.5639 66.6075 44.5995 66.601 44.6342 66.5939L44.6897 66.5842C44.7114 66.5807 44.7327 66.5767 44.754 66.5718L44.8682 66.5482C44.883 66.5452 44.8979 66.5423 44.9127 66.5389L45.0283 66.5123C45.0465 66.508 45.0646 66.5037 45.0829 66.4991L45.1967 66.4698C45.2119 66.466 45.2267 66.4619 45.2415 66.4574L45.3549 66.4257C45.3705 66.4215 45.3866 66.4168 45.4018 66.4121L45.5148 66.3778C45.5503 66.3668 45.5858 66.3553 45.6206 66.3427L45.6764 66.3244C45.6963 66.3177 45.7163 66.3108 45.736 66.3037L45.8483 66.2628C45.8651 66.2565 45.882 66.25 45.8985 66.2433L46.009 66.2003C46.0213 66.1956 46.0335 66.1905 46.0457 66.1854L46.155 66.1406C46.1901 66.1263 46.2247 66.1105 46.2588 66.0944L46.3151 66.0695C46.3333 66.0615 46.3514 66.053 46.3697 66.0445L46.4772 65.9933C46.4914 65.9866 46.506 65.9793 46.5202 65.972L46.6269 65.9181C46.6612 65.9009 46.6953 65.8826 46.7284 65.8635L46.7839 65.8338C46.7995 65.8253 46.8154 65.8166 46.8304 65.8076L46.9352 65.7481C46.9521 65.7384 46.9685 65.7286 46.985 65.7185L47.0884 65.6559C47.1044 65.6462 47.1205 65.636 47.1367 65.6258L47.2383 65.5606C47.2498 65.5535 47.261 65.5458 47.272 65.5381L47.3735 65.4702C47.3908 65.4583 47.4083 65.4467 47.4251 65.4343L47.5241 65.3636C47.5409 65.3516 47.5578 65.3396 47.5742 65.3268L47.6719 65.2527C47.6839 65.2434 47.6955 65.2344 47.7075 65.2253L47.8036 65.1491C47.829 65.1292 47.8537 65.1083 47.8785 65.0874L47.9332 65.0421C47.9523 65.0264 47.9713 65.0104 47.9894 64.9941L48.0823 64.9121C48.0946 64.9015 48.1062 64.8907 48.1182 64.88L48.2096 64.7953C48.2232 64.7829 48.2362 64.7703 48.2494 64.7575L48.3392 64.6703C48.3591 64.6512 48.3782 64.6317 48.3969 64.6122L75.9447 37.0648C78.6899 34.3184 78.6891 29.8504 75.9431 27.1056C74.6169 25.7794 72.8485 25.049 70.9637 25.049C69.0785 25.0492 67.3099 25.7796 65.9833 27.106ZM72.8793 34.0013L45.2962 61.5837C45.2917 61.5887 45.2864 61.5934 45.282 61.5979L45.0805 61.7772C45.0782 61.7791 45.076 61.7809 45.0734 61.7831L44.8158 61.9655L44.4498 62.1554C44.449 62.1559 44.4475 62.1563 44.4467 62.1567L44.2042 62.2454C44.2015 62.2462 44.1991 62.2473 44.1967 62.2481L43.8225 62.3356C43.8183 62.3364 43.8136 62.3372 43.8089 62.3383L43.6214 62.3606C43.617 62.3614 43.6121 62.3618 43.6078 62.3624L43.5016 62.3687C43.4971 62.3687 43.4926 62.3691 43.488 62.3695L43.3805 62.3718L43.3125 62.3706L43.2739 62.3697C43.2694 62.3693 43.2645 62.3689 43.2601 62.3689L43.1518 62.3626C43.1479 62.3622 43.1439 62.3618 43.1394 62.3608L42.9529 62.3385C42.9475 62.3377 42.9424 62.3362 42.9369 62.3354L42.564 62.2483C42.5635 62.2483 42.5627 62.2479 42.5621 62.2479L42.3495 62.1709L41.9424 61.9635L41.5678 61.6816L31.1211 51.2405C30.0653 50.1843 30.0653 48.4648 31.1211 47.4086C31.6289 46.9008 32.3094 46.6211 33.0374 46.6211C33.7648 46.6211 34.4453 46.9008 34.9533 47.4082L41.8485 54.3043C42.2548 54.7109 42.8059 54.939 43.3803 54.939C43.9548 54.939 44.5058 54.7109 44.9127 54.3047L69.048 30.17C69.5558 29.6621 70.2363 29.3824 70.9633 29.3824C71.6907 29.3824 72.3707 29.6621 72.8791 30.1704C73.9348 31.2264 73.9352 32.9451 72.8793 34.0013Z" fill="#FF6B00"/>
</svg>
