<svg width="104" height="104" viewBox="0 0 104 104" fill="none" xmlns="http://www.w3.org/2000/svg">
<g clip-path="url(#clip0)">
<path d="M96.9015 26.0705C96.3777 25.1696 95.2224 24.8639 94.3215 25.3877L85.1067 30.7144C84.2058 31.2382 83.9002 32.3934 84.424 33.2943C84.9478 34.1952 86.103 34.5009 87.0039 33.9771L96.2187 28.6504C97.1196 28.1263 97.4253 26.9714 96.9015 26.0705Z" fill="#FF6B00"/>
<path d="M96.2187 75.3603L87.0039 70.0336C86.103 69.5098 84.9478 69.8155 84.424 70.7164C83.9002 71.6173 84.2058 72.7725 85.1067 73.2963L94.3215 78.623C95.2224 79.1468 96.3777 78.8411 96.9015 77.9402C97.4253 77.0391 97.1196 75.8841 96.2187 75.3603Z" fill="#FF6B00"/>
<path d="M52.1451 89.2868C51.1001 89.2091 50.1904 89.9933 50.1127 91.0383C50.1057 91.1318 50.1057 91.2257 50.1127 91.3192V101.962C50.0351 103.007 50.8192 103.917 51.8642 103.995C52.9092 104.072 53.819 103.288 53.8966 102.243C53.9037 102.149 53.9037 102.056 53.8966 101.962V91.3192C53.974 90.2745 53.1899 89.3645 52.1451 89.2868Z" fill="#FF6B00"/>
<path d="M18.8926 30.7144L9.67773 25.3877C8.77684 24.8639 7.6216 25.1696 7.09779 26.0705C6.57399 26.9714 6.87967 28.1266 7.78057 28.6504L16.9954 33.9771C17.8963 34.5009 19.0515 34.1952 19.5753 33.2943C20.0991 32.3931 19.7934 31.2382 18.8926 30.7144Z" fill="#FF6B00"/>
<path d="M52.1471 0.00521324C51.1021 -0.0724456 50.1923 0.7117 50.1147 1.75671C50.1076 1.85026 50.1076 1.94408 50.1147 2.03763V12.6805C50.1204 13.7201 50.9619 14.5615 52.0014 14.5673C53.0493 14.5673 53.8986 13.718 53.8986 12.6701V2.03789C53.976 0.992887 53.1918 0.082872 52.1471 0.00521324Z" fill="#FF6B00"/>
<path d="M33.9658 16.9963L28.6496 7.7815C28.1258 6.8806 26.9705 6.57492 26.0696 7.09872C25.1687 7.62253 24.863 8.77777 25.3869 9.67866L30.7031 18.8935C31.2269 19.7944 32.3821 20.1001 33.283 19.5763C34.1839 19.0522 34.4896 17.8972 33.9658 16.9963Z" fill="#FF6B00"/>
<path d="M52.2817 35.1653C52.1881 35.1583 52.0943 35.1583 52.0008 35.1653C42.7031 35.1653 35.166 42.7024 35.166 52.0001C35.166 53.048 36.0153 53.8973 37.0632 53.8973C38.1069 53.8915 38.9499 53.0438 38.9499 52.0001C38.9442 44.7982 44.778 38.955 51.9799 38.9493C51.987 38.9493 51.9937 38.9493 52.0008 38.9493C53.0458 39.0269 53.9555 38.2428 54.0332 37.1978C54.1109 36.1528 53.3267 35.2427 52.2817 35.1653Z" fill="#FF6B00"/>
<path d="M103.713 51.8542C103.644 50.9174 102.899 50.1723 101.962 50.1027H91.319C90.274 50.0251 89.3642 50.8092 89.2866 51.8542C89.2089 52.8992 89.993 53.809 91.0381 53.8866C91.1316 53.8937 91.2257 53.8937 91.3192 53.8866H101.962C103.007 53.8092 103.791 52.8992 103.713 51.8542Z" fill="#FF6B00"/>
<path d="M12.9619 50.1134C12.8683 50.1063 12.7745 50.1063 12.681 50.1134H2.03805C0.993041 50.191 0.208896 51.101 0.286555 52.1458C0.356135 53.0826 1.10093 53.8277 2.03805 53.8973H12.681C13.726 53.9749 14.6357 53.1908 14.7134 52.1458C14.791 51.1008 14.0069 50.1908 12.9619 50.1134Z" fill="#FF6B00"/>
<path d="M52.0066 24.1577C36.6296 24.1556 24.1625 36.6193 24.1602 51.9962C24.1591 59.3835 27.094 66.4684 32.3182 71.6911C37.5326 76.9185 44.6154 79.852 51.9988 79.8427C67.3757 79.8447 79.8431 67.381 79.8452 52.0041C79.8473 36.6271 67.3835 24.1597 52.0066 24.1577ZM69.0107 69.0434C59.6153 78.4388 44.3822 78.4388 34.9868 69.0434C30.4672 64.5238 27.9318 58.3916 27.9402 52.0002C27.931 45.6175 30.4672 39.4947 34.9868 34.9882V35.0195C44.3822 25.6241 59.6153 25.6241 69.0107 35.0195C78.4064 44.4149 78.4064 59.648 69.0107 69.0434Z" fill="#FF6B00"/>
<path d="M78.6179 94.3299C78.6164 94.327 78.6148 94.3241 78.613 94.3215L73.2863 85.1067C72.7625 84.2058 71.6072 83.9002 70.7063 84.424C69.8055 84.9478 69.4998 86.103 70.0236 87.0039L75.3502 96.2187C75.872 97.1186 77.0238 97.4263 77.925 96.9067C78.828 96.3863 79.1383 95.2326 78.6179 94.3299Z" fill="#FF6B00"/>
<path d="M77.9926 7.09872C77.0917 6.57492 75.9364 6.8806 75.4126 7.7815L70.086 16.9963C69.5585 17.8951 69.8598 19.0511 70.7583 19.5783C70.7601 19.5794 70.7617 19.5804 70.7635 19.5815C71.6636 20.1063 72.8189 19.8022 73.3437 18.9018C73.3453 18.899 73.3471 18.8961 73.3487 18.8935L78.6753 9.67866C79.1991 8.77751 78.8935 7.62253 77.9926 7.09872Z" fill="#FF6B00"/>
<path d="M33.2935 84.424C32.3926 83.9002 31.2373 84.2058 30.7135 85.1067L25.3869 94.3215C24.863 95.2224 25.1687 96.3777 26.0696 96.9015C26.9705 97.4253 28.1258 97.1196 28.6496 96.2187L33.9762 87.0039C34.5 86.1027 34.1944 84.9478 33.2935 84.424Z" fill="#FF6B00"/>
<path d="M19.5753 70.706C19.0515 69.8051 17.8963 69.4995 16.9954 70.0233L7.78057 75.3499C6.87967 75.8737 6.57399 77.029 7.09779 77.9299C7.6216 78.8308 8.77684 79.1365 9.67773 78.6127L18.8926 73.286C19.7934 72.7619 20.0991 71.6069 19.5753 70.706Z" fill="#FF6B00"/>
</g>
<defs>
<clipPath id="clip0">
<rect width="104" height="104" fill="white"/>
</clipPath>
</defs>
</svg>
